<?xml version="1.0" encoding="utf-8"?>
<!-- Generator: Adobe Illustrator 21.0.0, SVG Export Plug-In . SVG Version: 6.00 Build 0)  -->
<svg version="1.1" id="图层_1" xmlns="http://www.w3.org/2000/svg" xmlns:xlink="http://www.w3.org/1999/xlink" x="0px" y="0px"
	 viewBox="0 0 200 200" style="enable-background:new 0 0 200 200;" xml:space="preserve">
<style type="text/css">
	.st0{fill:#FC3E36;}
</style>
<path class="st0" d="M100,12.5c-48.3,0-87.5,39.2-87.5,87.5c0,48.3,39.2,87.5,87.5,87.5c48.3,0,87.5-39.2,87.5-87.5
	C187.5,51.7,148.3,12.5,100,12.5z M100,163.5c-5.8,0-10.6-4.7-10.6-10.6c0-5.8,4.7-10.6,10.6-10.6c5.8,0,10.6,4.7,10.6,10.6
	C110.6,158.8,105.8,163.5,100,163.5z M110.6,115.9c0,5.8-4.7,10.6-10.6,10.6c-5.8,0-10.6-4.7-10.6-10.6V47.1
	c0-5.8,4.7-10.6,10.6-10.6c5.8,0,10.6,4.7,10.6,10.6V115.9z"/>
</svg>
