<?xml version="1.0" encoding="utf-8"?>
<!-- Generator: Adobe Illustrator 21.0.0, SVG Export Plug-In . SVG Version: 6.00 Build 0)  -->
<svg version="1.1" id="图层_1" xmlns="http://www.w3.org/2000/svg" xmlns:xlink="http://www.w3.org/1999/xlink" x="0px" y="0px"
	 viewBox="0 0 24 24" style="enable-background:new 0 0 24 24;" xml:space="preserve">
<style type="text/css">
	.st0{fill:#27B4F7;}
</style>
<path class="st0" d="M4.9,1.1C3,1.1,1.5,2.6,1.5,4.5c0,1.7,1.3,3.1,2.9,3.4v14.5c0,0.4,0.3,0.7,0.7,0.7s0.7-0.3,0.7-0.7V7.8
	C7.2,7.4,8.3,6,8.3,4.5C8.3,2.6,6.8,1.1,4.9,1.1z M5.3,6.4c-0.1,0-0.2,0-0.3,0c-0.1,0-0.2,0-0.3,0.1c-1-0.1-1.9-0.9-1.9-2
	c0-1.1,0.9-2,2-2s2,0.9,2,2C6.9,5.4,6.2,6.2,5.3,6.4z M19.7,16.4V1.5c0-0.4-0.3-0.7-0.7-0.7s-0.7,0.3-0.7,0.7v14.9
	c-1.5,0.4-2.6,1.7-2.6,3.3c0,1.9,1.5,3.4,3.4,3.4s3.4-1.5,3.4-3.4C22.5,18.1,21.3,16.7,19.7,16.4L19.7,16.4z M19.1,21.8
	c-1.1,0-2-0.9-2-2c0-1.1,0.9-2,2-2c1.1,0,2,0.9,2,2C21.1,20.9,20.2,21.8,19.1,21.8z M12.7,9.3V1.5c0-0.4-0.3-0.7-0.7-0.7
	c-0.4,0-0.7,0.3-0.7,0.7v7.8C9.7,9.6,8.5,11,8.5,12.7c0,1.7,1.2,3.1,2.8,3.4v6.4c0,0.4,0.3,0.7,0.7,0.7c0.4,0,0.7-0.3,0.7-0.7V16
	c1.5-0.4,2.6-1.7,2.6-3.3C15.3,11,14.2,9.7,12.7,9.3z M11.9,14.7c-1.1,0-2-0.9-2-2s0.9-2,2-2s2,0.9,2,2S13,14.7,11.9,14.7z"/>
</svg>
